<svg width="76" height="76" viewBox="0 0 76 76" fill="none" xmlns="http://www.w3.org/2000/svg">
<path d="M46.3596 3.79999H29.6396C27.9607 3.79999 26.5996 5.16104 26.5996 6.83999V34.96C26.5996 36.6389 27.9607 38 29.6396 38H46.3596C48.0386 38 49.3996 36.6389 49.3996 34.96V6.83999C49.3996 5.16104 48.0386 3.79999 46.3596 3.79999Z" fill="#47C4C6"/>
<path d="M15.9608 11.3848H6.84078C5.16184 11.3848 3.80078 12.7458 3.80078 14.4248V27.3904C3.80078 29.0693 5.16184 30.4304 6.84078 30.4304H15.9608C17.6397 30.4304 19.0008 29.0693 19.0008 27.3904V14.4248C19.0008 12.7458 17.6397 11.3848 15.9608 11.3848Z" fill="#018794"/>
<path d="M69.1904 11.3848H60.04C58.3611 11.3848 57 12.7458 57 14.4248V31.2056C57 32.8845 58.3611 34.2456 60.04 34.2456H69.1904C70.8693 34.2456 72.2304 32.8845 72.2304 31.2056V14.4248C72.2304 12.7458 70.8693 11.3848 69.1904 11.3848Z" fill="#018794"/>
<path d="M9.01398 72.2C9.01398 72.6032 8.85384 72.9898 8.56878 73.2748C8.28373 73.5599 7.89711 73.72 7.49398 73.72H5.09238C4.68925 73.72 4.30263 73.5599 4.01758 73.2748C3.73252 72.9898 3.57238 72.6032 3.57238 72.2C3.57238 71.7969 3.73252 71.4103 4.01758 71.1252C4.30263 70.8402 4.68925 70.68 5.09238 70.68H7.49398C7.89711 70.68 8.28373 70.8402 8.56878 71.1252C8.85384 71.4103 9.01398 71.7969 9.01398 72.2ZM73.7052 59.28C73.6469 59.6397 73.4614 59.9665 73.1824 60.2008C72.9034 60.4352 72.5495 60.5615 72.1852 60.5568H71.942C66.8773 59.79 62.1961 57.4067 58.5964 53.7624V70.68H70.65C71.0531 70.68 71.4397 70.8402 71.7248 71.1252C72.0098 71.4103 72.17 71.7969 72.17 72.2C72.17 72.6032 72.0098 72.9898 71.7248 73.2748C71.4397 73.5599 71.0531 73.72 70.65 73.72H33.0148C32.6116 73.72 32.225 73.5599 31.94 73.2748C31.6549 72.9898 31.4948 72.6032 31.4948 72.2C31.4948 71.7969 31.6549 71.4103 31.94 71.1252C32.225 70.8402 32.6116 70.68 33.0148 70.68H55.5716V53.7624C53.2765 56.0704 50.5341 57.8851 47.5126 59.0953C44.491 60.3055 41.2541 60.8856 38.0004 60.8C34.7466 60.8623 31.5138 60.2655 28.4967 59.0456C25.4796 57.8257 22.7405 56.0079 20.4444 53.7016V70.68H26.9044C27.3075 70.68 27.6941 70.8402 27.9792 71.1252C28.2642 71.4103 28.4244 71.7969 28.4244 72.2C28.4244 72.6032 28.2642 72.9898 27.9792 73.2748C27.6941 73.5599 27.3075 73.72 26.9044 73.72H13.9236C13.5205 73.72 13.1338 73.5599 12.8488 73.2748C12.5637 72.9898 12.4036 72.6032 12.4036 72.2C12.4036 71.7969 12.5637 71.4103 12.8488 71.1252C13.1338 70.8402 13.5205 70.68 13.9236 70.68H17.4348V53.7472C13.8259 57.4046 9.11579 59.7757 4.02838 60.496H3.80038C3.39725 60.5263 2.99862 60.3951 2.69219 60.1314C2.38576 59.8678 2.19662 59.4932 2.16638 59.09C2.13615 58.6869 2.26729 58.2883 2.53097 57.9818C2.79465 57.6754 3.16925 57.4863 3.57238 57.456C8.65962 56.7459 13.2907 54.1399 16.538 50.16C15.8642 49.7389 15.3121 49.149 14.9365 48.4488C14.5609 47.7486 14.3748 46.9624 14.3965 46.1682C14.4183 45.3739 14.6473 44.5991 15.0607 43.9205C15.4742 43.242 16.0577 42.6832 16.7536 42.2997C17.4495 41.9161 18.2335 41.721 19.028 41.7338C19.8225 41.7465 20.5998 41.9666 21.283 42.3723C21.9662 42.778 22.5316 43.3552 22.923 44.0467C23.3145 44.7381 23.5185 45.5199 23.5148 46.3144C23.5144 47.0814 23.3206 47.8359 22.9513 48.5081C22.582 49.1802 22.0491 49.7484 21.402 50.16C23.4164 52.5965 25.9559 54.5458 28.8303 55.862C31.7048 57.1781 34.8397 57.827 38.0004 57.76C41.1824 57.8523 44.3433 57.2155 47.2414 55.8982C50.1394 54.5809 52.6976 52.6181 54.7204 50.16C53.8875 49.6303 53.249 48.8446 52.9007 47.921C52.5525 46.9974 52.5134 45.9857 52.7893 45.038C53.0651 44.0902 53.6411 43.2576 54.4306 42.6651C55.2201 42.0726 56.1805 41.7523 57.1676 41.7523C58.1547 41.7523 59.1151 42.0726 59.9046 42.6651C60.6941 43.2576 61.27 44.0902 61.5459 45.038C61.8217 45.9857 61.7826 46.9974 61.4344 47.921C61.0862 48.8446 60.4477 49.6303 59.6148 50.16C62.8848 54.0742 67.4655 56.667 72.5044 57.456C72.7045 57.4939 72.895 57.5717 73.0645 57.6847C73.234 57.7976 73.3791 57.9435 73.4911 58.1137C73.6031 58.2838 73.6798 58.4748 73.7166 58.6751C73.7534 58.8755 73.7495 59.0812 73.7052 59.28ZM17.4652 46.4208C17.4652 46.7215 17.5543 47.0153 17.7213 47.2653C17.8884 47.5153 18.1258 47.7101 18.4035 47.8251C18.6812 47.9402 18.9869 47.9703 19.2817 47.9116C19.5766 47.853 19.8474 47.7082 20.06 47.4956C20.2726 47.2831 20.4173 47.0122 20.476 46.7174C20.5346 46.4225 20.5045 46.1169 20.3895 45.8392C20.2744 45.5614 20.0796 45.324 19.8296 45.157C19.5797 44.99 19.2858 44.9008 18.9852 44.9008C18.5871 44.8926 18.2017 45.0408 17.9118 45.3136C17.6219 45.5865 17.4506 45.9622 17.4348 46.36L17.4652 46.4208ZM55.602 46.4208C55.602 46.7215 55.6911 47.0153 55.8581 47.2653C56.0252 47.5153 56.2626 47.7101 56.5403 47.8251C56.818 47.9402 57.1237 47.9703 57.4185 47.9116C57.7134 47.853 57.9842 47.7082 58.1968 47.4956C58.4094 47.2831 58.5541 47.0122 58.6128 46.7174C58.6714 46.4225 58.6413 46.1169 58.5263 45.8392C58.4112 45.5614 58.2164 45.324 57.9664 45.157C57.7165 44.99 57.4226 44.9008 57.122 44.9008C56.7239 44.8926 56.3385 45.0408 56.0486 45.3136C55.7587 45.5865 55.5874 45.9622 55.5716 46.36L55.602 46.4208ZM26.6004 31.92C27.0035 31.92 27.3901 31.7599 27.6752 31.4748C27.9602 31.1898 28.1204 30.8032 28.1204 30.4V6.84003C28.1204 6.4369 28.2805 6.05028 28.5656 5.76523C28.8506 5.48017 29.2372 5.32003 29.6404 5.32003H38.0004C38.4035 5.32003 38.7901 5.15989 39.0752 4.87483C39.3602 4.58978 39.5204 4.20316 39.5204 3.80003C39.5204 3.3969 39.3602 3.01028 39.0752 2.72523C38.7901 2.44017 38.4035 2.28003 38.0004 2.28003H29.6404C28.431 2.28003 27.2711 2.76046 26.416 3.61562C25.5608 4.47079 25.0804 5.63064 25.0804 6.84003V30.4C25.0804 30.8032 25.2405 31.1898 25.5256 31.4748C25.8106 31.7599 26.1973 31.92 26.6004 31.92ZM44.1868 5.32003H46.3604C46.7635 5.32003 47.1501 5.48017 47.4352 5.76523C47.7202 6.05028 47.8804 6.4369 47.8804 6.84003V34.96C47.8804 35.3632 47.7202 35.7498 47.4352 36.0348C47.1501 36.3199 46.7635 36.48 46.3604 36.48H33.714C33.3109 36.48 32.9242 36.6402 32.6392 36.9252C32.3541 37.2103 32.194 37.5969 32.194 38C32.194 38.4032 32.3541 38.7898 32.6392 39.0748C32.9242 39.3599 33.3109 39.52 33.714 39.52H46.3604C47.5698 39.52 48.7296 39.0396 49.5848 38.1844C50.4399 37.3293 50.9204 36.1694 50.9204 34.96V6.84003C50.9204 5.63064 50.4399 4.47079 49.5848 3.61562C48.7296 2.76046 47.5698 2.28003 46.3604 2.28003H44.1868C43.7836 2.28003 43.397 2.44017 43.112 2.72523C42.8269 3.01028 42.6668 3.3969 42.6668 3.80003C42.6668 4.20316 42.8269 4.58978 43.112 4.87483C43.397 5.15989 43.7836 5.32003 44.1868 5.32003ZM2.28038 27.36V14.4248C2.28038 13.2154 2.76081 12.0556 3.61597 11.2004C4.47114 10.3453 5.63099 9.86483 6.84038 9.86483H15.9604C17.1698 9.86483 18.3296 10.3453 19.1848 11.2004C20.04 12.0556 20.5204 13.2154 20.5204 14.4248V27.36C20.5204 28.5694 20.04 29.7293 19.1848 30.5844C18.3296 31.4396 17.1698 31.92 15.9604 31.92H6.84038C5.63099 31.92 4.47114 31.4396 3.61597 30.5844C2.76081 29.7293 2.28038 28.5694 2.28038 27.36ZM5.32038 27.36C5.32038 27.7632 5.48052 28.1498 5.76558 28.4348C6.05063 28.7199 6.43725 28.88 6.84038 28.88H15.9604C16.3635 28.88 16.7501 28.7199 17.0352 28.4348C17.3202 28.1498 17.4804 27.7632 17.4804 27.36V14.4248C17.4804 14.0217 17.3202 13.6351 17.0352 13.35C16.7501 13.065 16.3635 12.9048 15.9604 12.9048H6.84038C6.43725 12.9048 6.05063 13.065 5.76558 13.35C5.48052 13.6351 5.32038 14.0217 5.32038 14.4248V27.36ZM73.7204 14.6984V30.9168C73.7204 31.5536 73.595 32.1841 73.3513 32.7724C73.1076 33.3607 72.7505 33.8952 72.3002 34.3455C71.8499 34.7957 71.3154 35.1529 70.7271 35.3965C70.1389 35.6402 69.5083 35.7656 68.8716 35.7656H60.4052C59.1178 35.7656 57.8829 35.2553 56.9712 34.3464C56.0594 33.4375 55.5452 32.2042 55.5412 30.9168V14.7136C55.5452 13.4263 56.0594 12.193 56.9712 11.2841C57.8829 10.3752 59.1178 9.86482 60.4052 9.86483H68.902C69.5387 9.86483 70.1693 9.99025 70.7575 10.2339C71.3458 10.4776 71.8803 10.8348 72.3306 11.285C72.7808 11.7353 73.138 12.2698 73.3817 12.8581C73.6254 13.4464 73.7508 14.0769 73.7508 14.7136L73.7204 14.6984ZM70.6804 14.6984C70.6804 14.2187 70.4898 13.7586 70.1506 13.4194C69.8114 13.0802 69.3513 12.8896 68.8716 12.8896H60.4052C60.1664 12.8876 59.9295 12.9329 59.7083 13.0229C59.4871 13.1129 59.2859 13.2458 59.1163 13.414C58.9468 13.5822 58.8122 13.7823 58.7203 14.0027C58.6285 14.2232 58.5812 14.4596 58.5812 14.6984V30.9168C58.5812 31.1557 58.6285 31.3921 58.7203 31.6126C58.8122 31.833 58.9468 32.0331 59.1163 32.2013C59.2859 32.3694 59.4871 32.5023 59.7083 32.5923C59.9295 32.6823 60.1664 32.7276 60.4052 32.7256H68.902C69.3817 32.7256 69.8418 32.5351 70.181 32.1958C70.5202 31.8566 70.7108 31.3966 70.7108 30.9168L70.6804 14.6984Z" fill="#323C52"/>
</svg>
