<svg width="50" height="50" fill="none" xmlns="http://www.w3.org/2000/svg">
  <path d="M25.86 15.2l2.02 4.08 4.5.65a1 1 0 01.56 1.71l-3.26 3.18.77 4.5A1 1 0 0129 30.36l-4.03-2.12-4.04 2.12a1 1 0 01-1.45-1.06l.77-4.49L17 21.64a1 1 0 01.55-1.7l4.51-.66 2.02-4.09a1 1 0 011.8 0z" fill="#963678"/>
  <path d="M35 31.85a1 1 0 00.86-.5l3-5.18a1 1 0 00-1.74-1l-2.99 5.18a1 1 0 00.87 1.5zM28.04 34.67h-3.08a1 1 0 100 2h3.08a1 1 0 000-2zM29.33 9.67h-8.66a6.02 6.02 0 00-5.2 3l-4.33 7.5a6.02 6.02 0 000 6l4.33 7.5a6.02 6.02 0 005.2 3 1 1 0 000-2 4.01 4.01 0 01-3.46-2l-4.33-7.5a4 4 0 010-4l4.33-7.5a4.01 4.01 0 013.46-2h8.66a1 1 0 000-2z" fill="#323C52"/>
  <path d="M48.03 39.35L40.1 31.4l2.6-4.5a7.5 7.5 0 000-7.48L37.09 9.7a7.5 7.5 0 00-6.48-3.74H19.4A7.5 7.5 0 0012.9 9.7l-5.6 9.72a7.5 7.5 0 000 7.48l2.66 4.63-7.92 7.92a1 1 0 00.49 1.69l5.14 1.17 1.18 5.14a1 1 0 001.68.49l7.68-7.69c.39.07.78.1 1.17.1H30.6c.45 0 .9-.05 1.33-.13l7.6 7.6a1 1 0 001.69-.48l1.18-5.14 5.14-1.18a1 1 0 00.48-1.68zm-37.63 5.9l-.91-3.98a1 1 0 00-.75-.76l-4-.91 6.27-6.27 1.9 3.3a7.47 7.47 0 003.17 2.94l-5.68 5.69zm8.99-6.89a5.5 5.5 0 01-4.75-2.73l-5.6-9.72a5.5 5.5 0 010-5.48l5.6-9.72a5.5 5.5 0 014.75-2.74H30.6a5.5 5.5 0 014.75 2.74l5.6 9.72a5.5 5.5 0 010 5.48l-5.6 9.72a5.5 5.5 0 01-4.75 2.73H19.4zm21.96 2.04a1 1 0 00-.75.75l-.92 3.99-5.63-5.63a7.46 7.46 0 003.04-2.88l1.97-3.42 6.28 6.27-3.99.92zM39.96 8.3h1.74v1.74a1 1 0 002 0V8.3h1.74a1 1 0 000-2H43.7V4.56a1 1 0 10-2 0V6.3h-1.74a1 1 0 100 2zM5.53 10.86h.97v.97a1 1 0 102 0v-.97h.97a1 1 0 100-2H8.5V7.9a1 1 0 10-2 0v.96h-.97a1 1 0 100 2z" fill="#323C52"/>
</svg>
